<svg width="1215" height="202" viewBox="0 0 1215 202" fill="none" xmlns="http://www.w3.org/2000/svg">
<path fill-rule="evenodd" clip-rule="evenodd" d="M154.493 73.359C156.742 71.3295 157.181 68.2729 155.81 65.8433C155.476 65.2493 155.037 64.7006 154.493 64.2139C151.685 61.6811 147.149 61.6811 144.355 64.2139C141.547 66.7425 141.547 70.8386 144.355 73.359C144.922 73.8705 145.571 74.2913 146.266 74.5924C148.946 75.7845 152.279 75.3761 154.506 73.359H154.493ZM131.012 106.788C152.321 90.8903 171.069 67.0808 187.256 35.3884C177.182 45.4658 167.799 54.6109 159.084 62.799C162.225 66.9199 161.772 72.6 157.712 76.263C153.688 79.8889 147.469 80.3344 142.919 77.5789C134.826 84.7646 127.441 90.9356 120.797 96.0919C116.722 104.746 120.124 108.314 131.021 106.788H131.012ZM197.485 25.4265C193.091 58.2285 173.382 88.7906 138.378 117.121C144.716 114.894 149.76 112.06 153.509 108.632C148.274 136.566 131.643 152.431 103.608 156.234C108.848 149.758 110.284 143.414 107.902 137.231C103.196 141.083 97.7411 143.917 91.5451 145.724C92.9946 141.224 92.6562 137.103 90.5254 133.361C89.3593 136.298 87.0593 138.456 83.6343 139.821C82.4409 136.884 80.7856 134.479 78.6684 132.615C76.6107 130.701 73.9494 129.207 70.6754 128.135C72.1889 125.041 74.5804 122.966 77.8407 121.919C73.6887 119.992 69.1252 119.687 64.1318 120.995C66.1393 115.397 69.2807 110.484 73.547 106.239C66.6788 104.094 59.6598 105.39 52.4807 110.113C56.6967 84.8224 74.2832 69.8115 105.254 65.1008C101.449 68.4833 98.3218 73.029 95.8388 78.7463C127.249 47.157 161.123 29.3948 197.485 25.4265Z" fill="#FF1616"/>
<path d="M80.182 158.194L42.087 188.277L36.0099 182.012L74.1003 151.928L80.182 158.194Z" fill="black"/>
<path d="M75.7053 139.986L30.0745 176.006L24.0111 169.74L69.6419 133.72L75.7053 139.986Z" fill="black"/>
<path d="M56.8933 132.883L18.7983 162.962L12.7212 156.701L50.8162 126.629L56.8933 132.883Z" fill="black"/>
<path fill-rule="evenodd" clip-rule="evenodd" d="M27.0337 132.264C22.6668 122.616 20.2478 112.047 20.2478 100.98C20.2478 55.2997 61.3014 18.2655 111.939 18.2655C126.586 18.2655 140.436 21.3675 152.709 26.8744C160.529 23.6074 168.677 20.9137 177.146 18.8966C158.786 6.996 136.261 0 111.939 0C50.1166 0 0 45.21 0 100.98C0 116.704 3.97823 131.587 11.0933 144.849L27.0337 132.264Z" fill="black"/>
<path fill-rule="evenodd" clip-rule="evenodd" d="M111.939 183.69C98.3721 183.69 85.5091 181.034 73.922 176.274L57.5015 189.234C73.611 197.34 92.1807 201.96 111.926 201.96C173.744 201.96 223.865 156.746 223.865 100.98C223.865 79.959 216.741 60.4436 204.559 44.2778C202.245 52.0575 199.154 59.5361 195.404 66.7219C200.681 77.1581 203.612 88.7535 203.612 100.98C203.612 146.656 162.559 183.69 111.926 183.69H111.939Z" fill="black"/>
<path d="M291.903 128.343V117.989C291.903 116.322 290.731 115.485 288.402 115.485H274.931C268.002 115.485 263.121 114.257 260.273 111.801C257.424 109.333 256 105.776 256 101.135V86.1099C256 76.7073 262.825 72 276.474 72H295.701C309.351 72 316.175 76.7073 316.175 86.1099V94.8743H291.607V88.7344C291.607 87.067 290.435 86.2302 288.105 86.2302H284.04C281.704 86.2302 280.539 87.067 280.539 88.7344V99.5455C280.539 101.219 281.704 102.05 284.04 102.05H297.244C304.143 102.05 309.069 103.229 312.021 105.589C314.966 107.937 316.442 111.386 316.442 115.943V130.968C316.442 140.376 309.618 145.077 295.968 145.077H276.889C263.136 145.077 256.267 140.376 256.267 130.968V122.203H280.806V128.343C280.806 130.017 281.978 130.847 284.337 130.847H288.402C290.731 130.847 291.903 130.017 291.903 128.343Z" fill="#FF1616"/>
<path d="M345.892 72H387.552C401.298 72 408.174 76.7073 408.174 86.1099V107.058C408.174 116.467 401.298 121.168 387.552 121.168H370.431V145.077H345.892V72ZM383.635 104.433V88.7344C383.635 87.067 382.456 86.2302 380.104 86.2302H370.431V106.938H380.104C382.456 106.938 383.635 106.107 383.635 104.433Z" fill="#FF1616"/>
<path d="M482.087 145.077L479.268 134.146H457.666L454.729 145.077H430.605L453.75 72H483.63L506.774 145.077H482.087ZM461.464 120.036H475.499L468.615 93.7427L461.464 120.036Z" fill="#FF1616"/>
<path d="M592.328 99.3288H567.759V87.6027C567.759 85.9353 566.587 85.0986 564.258 85.0986H559.362C557.025 85.0986 555.861 85.9353 555.861 87.6027V129.475C555.861 131.148 557.025 131.979 559.362 131.979H564.258C566.587 131.979 567.759 131.148 567.759 129.475V118.206H592.328V130.968C592.328 140.376 585.451 145.077 571.705 145.077H551.914C538.161 145.077 531.292 140.376 531.292 130.968V86.1099C531.292 76.7073 538.161 72 551.914 72H571.705C585.451 72 592.328 76.7073 592.328 86.1099V99.3288Z" fill="#FF1616"/>
<path d="M645.602 130.847H676.342V145.077H621.063V72H675.066V86.2302H645.602V101.135H671.001V115.365H645.602V130.847Z" fill="#FF1616"/>
<path d="M738.525 128.359V117.982C738.525 116.31 737.522 115.474 735.54 115.474H724.112C718.244 115.474 714.087 114.245 711.655 111.786C709.21 109.327 708 105.786 708 101.163V86.1144C708 76.7089 713.791 72 725.399 72H741.717C753.312 72 759.116 76.7089 759.116 86.1144V94.9174H738.268V88.77C738.268 87.098 737.264 86.2619 735.282 86.2619H731.833C729.839 86.2619 728.848 87.098 728.848 88.77V99.5402C728.848 101.212 729.839 102.048 731.833 102.048H743.055C748.924 102.048 753.106 103.229 755.615 105.589C758.112 107.95 759.373 111.417 759.373 115.966V130.966C759.373 140.383 753.569 145.08 741.974 145.08H725.759C714.087 145.08 708.257 140.383 708.257 130.966V122.212H729.105V128.359C729.105 130.031 730.096 130.867 732.091 130.867H735.54C737.522 130.867 738.525 130.031 738.525 128.359Z" fill="black"/>
<path d="M819.158 130.867H845.205V145.08H798.31V72H844.124V86.2619H819.158V101.163H840.675V115.376H819.158V130.867Z" fill="black"/>
<path d="M921.3 145.08L918.932 134.162H900.607L898.084 145.08H877.597L897.261 72H922.639L942.251 145.08H921.3ZM903.798 120.048H915.689L909.872 93.7371L903.798 120.048Z" fill="black"/>
<path d="M998.499 119.113V145.08H977.651V72H1013.02C1024.67 72 1030.52 76.7089 1030.52 86.1144V104.999C1030.52 112.216 1027.09 116.655 1020.27 118.327L1034.33 145.08H1011.93L999.786 119.113H998.499ZM1006.68 86.2619H998.499V105.589H1006.68C1008.67 105.589 1009.67 104.753 1009.67 103.081V88.77C1009.67 87.098 1008.67 86.2619 1006.68 86.2619Z" fill="black"/>
<path d="M1120.68 99.3435H1099.84V87.5897C1099.84 85.9545 1098.83 85.1308 1096.85 85.1308H1092.68C1090.69 85.1308 1089.69 85.9545 1089.69 87.5897V129.49C1089.69 131.162 1090.69 131.998 1092.68 131.998H1096.85C1098.83 131.998 1099.84 131.162 1099.84 129.49V118.228H1120.68V130.966C1120.68 140.383 1114.83 145.08 1103.13 145.08H1086.35C1074.68 145.08 1068.85 140.383 1068.85 130.966V86.1144C1068.85 76.7089 1074.68 72 1086.35 72H1103.13C1114.83 72 1120.68 76.7089 1120.68 86.1144V99.3435Z" fill="black"/>
<path d="M1194.48 72H1214.97V145.08H1194.48V116.163H1179.5V145.08H1159.02V72H1179.5V101.95H1194.48V72Z" fill="black"/>
</svg>
